<svg xmlns="http://www.w3.org/2000/svg" viewBox="0 0 4446 651" width="1482" height="217" role="img"><title>EM Photography — Wedding &amp; Portrait Photographer</title><path fill="#191816" fill-rule="evenodd" d="M 1694.5 13.6 C 1662.5 18.4, 1642.4 26.3, 1614.9 44.7 C 1586.4 63.8, 1560.1 100, 1548.1 136.5 C 1541.4 157, 1539.6 170.5, 1539.6 198.5 C 1539.6 227.4, 1540.8 235.1, 1548.7 259.2 C 1555.8 280.9, 1567.5 301.5, 1583.4 320.6 C 1588 326, 1604.1 340.5, 1613.5 347.6 C 1620.8 353.1, 1641.4 365.4, 1645.3 366.6 C 1646.5 366.9, 1648 367.6, 1648.5 368 C 1650.8 369.7, 1671.3 376.1, 1681 378.1 C 1694.1 380.8, 1727.6 381.9, 1741 380 C 1778.2 374.8, 1813.4 356.1, 1842.8 326 C 1858.6 309.8, 1874.6 283.2, 1881.6 261.2 C 1894 222.5, 1895.3 186.7, 1885.5 148.5 C 1878.9 122.6, 1872.1 107.7, 1857.1 86 C 1849.3 74.7, 1825.3 50.3, 1816.5 44.6 C 1813.2 42.5, 1808 39.3, 1805 37.3 C 1774.7 18.2, 1728.9 8.3, 1694.5 13.6 M 2349.5 13 C 2323.5 16.2, 2302.2 23.2, 2282 35.1 C 2265 45.2, 2255.7 52.2, 2244.5 63.5 C 2229.6 78.5, 2221.5 89.8, 2211.7 109.5 C 2197.8 137.3, 2191.9 158.3, 2189.9 187.8 C 2187.3 223.9, 2194.7 256.9, 2212.4 288.9 C 2214.9 293.5, 2217 297.5, 2217 297.9 C 2217 298.5, 2220.4 303.2, 2230.2 316.3 C 2236.6 324.8, 2256.6 343.1, 2267.3 350.3 C 2277.7 357.3, 2309.2 372.6, 2318 374.9 C 2334.2 379.3, 2342.2 380.3, 2364 380.7 C 2386.9 381.2, 2393 380.6, 2411 376.4 C 2436.6 370.3, 2463.8 355.3, 2485.6 335.1 C 2496.9 324.7, 2499.3 321.9, 2511.2 305.5 C 2522.7 289.5, 2534.4 260.4, 2539.6 235 C 2544 212.9, 2543.9 177.9, 2539.5 157.5 C 2534.3 134.2, 2520.8 101.2, 2511.8 90.4 C 2509.6 87.7, 2506.3 83.3, 2504.5 80.5 C 2497.7 70.4, 2464.6 40, 2460.3 40 C 2459.8 40, 2457.8 38.8, 2455.9 37.4 C 2448.6 32, 2429.9 23.5, 2418.5 20.4 C 2389.3 12.6, 2370.1 10.5, 2349.5 13 M 2730 13 C 2710.8 15.5, 2688.1 21.8, 2672 29.2 C 2664.3 32.8, 2644.3 45.3, 2636.8 51.2 C 2584.3 92.7, 2559 165.7, 2572.6 236.5 C 2575.6 252.4, 2583.1 274.3, 2590.4 288.9 C 2598 304, 2612.4 323.2, 2623.5 333.1 C 2626.2 335.5, 2629.1 338.1, 2629.8 338.7 C 2637.5 345.9, 2660.8 360.6, 2673.5 366.3 C 2696.5 376.5, 2719.9 381, 2750.9 381 C 2780.8 381, 2808 375.1, 2834.3 363.1 C 2842.5 359.3, 2850.5 357, 2853.2 357.6 C 2856.1 358.2, 2862 364.1, 2862 366.4 C 2862 367.2, 2862.7 368.3, 2863.6 369.1 C 2864.9 370.1, 2865.3 370.1, 2866.1 368.9 C 2866.7 368.1, 2867 344.7, 2867 311 C 2866.9 257.4, 2867.4 246.2, 2869.9 239.7 C 2872.3 233.6, 2884.3 226, 2891.6 226 C 2895.3 226, 2898.7 224, 2896.9 222.9 C 2895.1 221.8, 2785.9 221.8, 2784.1 222.9 C 2781 224.9, 2784.3 226, 2793.2 226 C 2812.2 226, 2820.6 231.6, 2824.8 247 C 2826 251.4, 2826.4 261.4, 2826.7 296.3 L 2827.1 340 2824.8 344.6 C 2815.2 363.9, 2770.5 379.2, 2740.5 373.5 C 2719 369.5, 2702.9 362.4, 2681.5 347.4 C 2675 342.8, 2657.8 325.7, 2653.9 319.8 C 2652.6 317.8, 2649.3 313.2, 2646.6 309.6 C 2637.7 297.3, 2626.5 272.9, 2620.7 253 C 2619.8 250, 2617.9 241.2, 2616.3 233.5 C 2613.7 220.6, 2613.5 217.7, 2613.6 196.5 C 2613.6 172.8, 2614.6 163.5, 2619 144.6 C 2623.1 127, 2635.5 97.1, 2642.5 88 C 2644 86.1, 2647.8 80.7, 2651 76.2 C 2660.2 62.9, 2681.3 42.6, 2688.2 40.5 C 2689.4 40.1, 2693.5 37.9, 2697.4 35.6 C 2710 28.2, 2723.8 23.1, 2738.2 20.4 C 2750.7 18.1, 2773 18.9, 2785 22 C 2806.3 27.6, 2830.3 44.5, 2840.5 61.1 C 2847.1 71.8, 2853.4 88.1, 2855.8 100.5 C 2857.1 106.9, 2858 109.5, 2859.1 109.5 C 2860.3 109.5, 2860.5 104.5, 2860.5 75.3 C 2860.5 56.5, 2860.2 39.8, 2859.8 38.3 C 2859.2 35.9, 2857.6 34.9, 2849.3 31.4 C 2843.9 29.1, 2838.6 27, 2837.5 26.7 C 2836.4 26.4, 2832.9 25.2, 2829.7 24.1 C 2822.4 21.5, 2801.1 16.3, 2790 14.3 C 2780.2 12.6, 2740.2 11.7, 2730 13 M 3359.4 18.1 C 3358.6 19.8, 3356.3 25.1, 3354.5 29.9 C 3352.6 34.6, 3350.5 39.9, 3349.7 41.5 C 3348.9 43.2, 3346.5 48.8, 3344.5 54 C 3342.4 59.2, 3339.7 65.5, 3338.5 68 C 3337.3 70.5, 3334.4 77.5, 3332.2 83.5 C 3329.9 89.6, 3326.1 99.2, 3323.7 105 C 3321.3 110.8, 3317.6 119.6, 3315.5 124.5 C 3313.5 129.5, 3310.9 135.5, 3309.8 138 C 3308.6 140.5, 3306.4 146.1, 3304.8 150.5 C 3302.1 157.9, 3299.4 164.5, 3294.9 174.6 C 3292.4 180.4, 3282.5 205.6, 3280.7 211 C 3279.9 213.5, 3277.3 220, 3275 225.5 C 3264.8 249.9, 3256.5 270.4, 3255 275 C 3254.2 277.5, 3251.9 282.9, 3248.2 291.1 C 3244.3 299.7, 3235.2 322.9, 3234.5 326.1 C 3232.4 335.5, 3220.2 356.1, 3212.9 362.4 C 3205 369.3, 3199.1 371.4, 3186.5 371.8 L 3175.5 372.2 3171.8 367.3 C 3162.3 354.9, 3160.1 351.6, 3153.2 338.5 C 3146.5 325.9, 3136 304.5, 3136 303.4 C 3136 303, 3108.3 249.4, 3103 239.5 C 3094.5 223.7, 3081.2 211.5, 3066.5 205.8 C 3063.5 204.7, 3061 203.4, 3061 203 C 3061 201.9, 3063.7 201, 3066.5 201 C 3067.8 201, 3069.9 200.6, 3071.2 200.1 C 3072.5 199.5, 3076.9 198.1, 3081 196.9 C 3099.5 191.6, 3118.8 179, 3130.1 165 C 3138.2 154.8, 3144.8 139.3, 3147.1 124.9 C 3148.6 115.4, 3147.7 95.3, 3145.5 87.5 C 3142.8 78, 3136.1 64.1, 3130.8 56.8 C 3120.1 42.2, 3098.5 28.6, 3077.1 23 C 3058.6 18.2, 3053.8 18, 2975.9 18 C 2935.5 18, 2901.9 18.4, 2901.1 18.9 C 2899.1 20.2, 2900.7 20.7, 2908.5 21.5 C 2916.6 22.3, 2924.4 24.5, 2928 27.1 C 2931.7 29.6, 2935.9 38.6, 2937.1 46.1 C 2937.7 50.2, 2938 106.7, 2937.8 200.5 L 2937.5 348.5 2935.3 355.1 C 2932.4 363.6, 2930.2 366.3, 2923.6 369.5 C 2919.7 371.4, 2916.1 372.2, 2909.6 372.7 C 2903.5 373.1, 2900.7 373.7, 2900.3 374.7 C 2900 375.5, 2900 376.3, 2900.3 376.7 C 2901.1 377.4, 3012.9 377.4, 3013.7 376.7 C 3014 376.3, 3014 375.5, 3013.7 374.7 C 3013.3 373.7, 3010.8 373.1, 3005.3 372.7 C 2989.8 371.6, 2983.8 367.6, 2979.9 355.8 L 2977.5 348.5 2977.7 279.1 C 2977.9 226.3, 2978.2 209.4, 2979.2 208.3 C 2980.2 207.1, 2983.9 206.9, 3001.9 207.2 C 3026.4 207.6, 3031.3 208.6, 3041.1 215.2 C 3048.1 219.8, 3052 225.1, 3059.8 240.6 C 3063.1 247.3, 3067.8 256.3, 3070.2 260.6 C 3072.6 265, 3077.6 275.5, 3081.3 284 C 3090.5 305, 3108.2 341.2, 3115.3 353.5 C 3134.2 386.1, 3154.6 402.9, 3183.6 410.1 C 3191.3 411.9, 3194.3 412.2, 3205.9 411.7 C 3216.4 411.3, 3219.6 410.8, 3220.9 409.5 C 3222.9 407.5, 3221.5 406.4, 3215.5 405.4 C 3207.7 404.2, 3198.5 398.3, 3189.9 389.2 C 3185.5 384.5, 3182.1 380.2, 3182.3 379.6 C 3182.9 377.9, 3195 377.3, 3233 377.1 C 3252.5 377, 3269.1 376.6, 3269.9 376.1 C 3271.9 374.8, 3269.8 373.9, 3262.7 373 C 3247.3 371.1, 3240 366.1, 3237.9 356.2 C 3236 346.7, 3237.9 339.2, 3248 316.5 C 3249.9 312.3, 3252.3 306.1, 3256.5 295 C 3258.8 288.7, 3262.9 278.6, 3265.5 272.5 C 3268 266.5, 3271.8 257.5, 3273.8 252.5 C 3275.8 247.6, 3278.2 243, 3279 242.3 C 3280.1 241.4, 3295.8 241.1, 3344.6 241 C 3404.3 241, 3408.9 241.1, 3410.8 242.8 C 3411.9 243.7, 3414.1 248.3, 3415.8 253 C 3417.5 257.7, 3420.7 266, 3422.9 271.5 C 3426.7 280.9, 3438.7 311.5, 3445 328 C 3450.2 341.7, 3453.2 352.4, 3452.6 355.7 C 3450.8 367.2, 3442.4 372.8, 3426.8 373 C 3421.7 373, 3421 373.2, 3421 375 C 3421 376.7, 3421.7 377, 3425.3 377 C 3561 377.4, 3635.8 377.2, 3636.8 376.6 C 3639.5 374.9, 3635.9 373.3, 3628.2 372.7 C 3613.8 371.7, 3607.3 367.6, 3603.8 357 C 3601.6 350.6, 3601.5 349.3, 3601.2 287.7 C 3601 238.9, 3601.2 224.5, 3602.1 223.4 C 3603 222.3, 3604.6 222, 3607.9 222.4 C 3617.9 223.6, 3644.3 224, 3657.4 223 C 3693.2 220.5, 3711.3 214.4, 3735.9 196.5 C 3740.9 192.9, 3751.1 182.4, 3755.7 176.2 C 3762.6 167, 3765.1 161.9, 3768.6 149.5 C 3771.4 140, 3771.5 138.5, 3771.5 120 C 3771.5 101, 3771.4 100.2, 3768.3 89.3 C 3764.8 77.2, 3759.5 67.2, 3750.9 56.4 C 3744.4 48.2, 3738.6 43.4, 3726 36 C 3714.9 29.4, 3709.7 27, 3697.6 23.4 C 3680.5 18.2, 3674.4 17.9, 3597.1 18.2 C 3546.3 18.4, 3525.6 18.8, 3525.3 19.6 C 3525.1 20.3, 3527.9 20.9, 3533.2 21.3 C 3544.5 22.1, 3550.2 24.3, 3554.4 29.2 C 3561.5 37.4, 3561.1 27.9, 3560.8 198.5 L 3560.5 351.5 3557.8 357.3 C 3553 367.5, 3546.9 371.1, 3532.9 371.8 C 3512.7 372.8, 3505.2 366.7, 3494 340.5 C 3493.5 339.4, 3492.2 336.5, 3491.2 334 C 3488.9 328.7, 3477.2 299.4, 3473.7 290 C 3472.3 286.4, 3469.2 278.6, 3466.8 272.5 C 3464.3 266.5, 3458.6 252.1, 3454 240.5 C 3446.8 222.2, 3443.8 215, 3440 206.5 C 3438.1 202.3, 3428.1 176.2, 3426 170 C 3424.8 166.4, 3422.7 161, 3421.3 158 C 3419.9 155, 3417.9 150.1, 3416.9 147.2 C 3415.9 144.3, 3414 139.4, 3412.6 136.2 C 3411.2 133.1, 3408.9 127.4, 3407.4 123.5 C 3406 119.7, 3403 112.5, 3400.9 107.5 C 3395.4 94.5, 3381.2 58.8, 3377.8 49.5 C 3376.2 45.1, 3374.3 40.1, 3373.5 38.3 C 3372.7 36.6, 3372 34.9, 3372 34.5 C 3372 33.4, 3365.7 17.5, 3364.7 16.3 C 3363.1 14.1, 3361.1 14.8, 3359.4 18.1 M 11.7 18.7 C 10.1 20.3, 11.5 20.8, 20.2 21.4 C 39.7 22.9, 45.8 27.2, 52.7 44.2 C 54.3 48.2, 54.5 58, 54.7 194.8 C 55 320, 54.8 341.9, 53.6 347.3 C 49.3 365.7, 42.3 371.5, 22.5 372.7 C 14.8 373.1, 11.7 373.7, 11.3 374.7 C 11 375.5, 11 376.3, 11.3 376.6 C 11.6 376.9, 76.1 377.1, 154.7 377.1 C 274.5 376.9, 297.7 376.7, 298.9 375.5 C 299.8 374.6, 300.6 370.1, 301.1 362.3 C 301.6 355.8, 302.6 345.1, 303.4 338.5 C 304.3 331.9, 305.4 321.8, 306 316 C 306.7 310.2, 307.7 303.7, 308.3 301.6 C 309.8 296.5, 309.8 287.8, 308.4 287.3 C 307.8 287.1, 306.3 290.1, 305 294.2 C 301.6 305.3, 300.2 308.8, 295.4 317.7 C 281.9 343.3, 265.2 357.2, 237.5 366 L 227.5 369.2 196 370 C 178.7 370.5, 151.5 370.5, 135.7 370.1 L 106.8 369.3 103.4 365.9 C 100.2 362.6, 100 362, 99 352 C 97.7 338.5, 97.8 201.3, 99.1 198.8 C 100 197.1, 102.6 197, 138 197 C 191 197, 199.6 198.5, 214.2 210.4 C 222.3 217, 228.1 230.1, 231.5 249.3 C 231.9 251.6, 232.6 253, 233.3 252.7 C 235.2 252.1, 235 139.5, 233.1 139.5 C 232.2 139.5, 230.9 142.5, 229.5 148 C 225.7 162.3, 220.5 171.3, 212.3 177.7 C 199.6 187.8, 191.7 189, 140.9 189 C 112.3 189, 99.9 188.7, 99.4 187.9 C 98.6 186.5, 98.7 27.4, 99.5 26 C 100.3 24.6, 212.9 24.6, 220.1 26 C 237.4 29.2, 255.6 37.6, 264.1 46.2 C 275.1 57.3, 281.6 68.8, 286.1 85 C 289.7 98.3, 290.2 99.5, 292.1 99.5 C 293.8 99.5, 293.8 96.8, 292.2 74 C 290.3 46.9, 287.9 21.6, 287 20 C 286.4 18.7, 269.9 18.5, 149.3 18.2 C 74 18.1, 12 18.3, 11.7 18.7 M 345 19 C 341.9 19.9, 343.5 20.6, 350.8 21.5 C 358.5 22.4, 367.6 25.4, 371.5 28.5 C 373.5 29.9, 376.3 33.5, 377.8 36.3 L 380.5 41.5 380.5 194.5 L 380.5 347.5 378.1 353.4 C 373.2 365.7, 364.7 371.3, 349 372.6 C 340.7 373.3, 339 374.1, 340.9 376.4 C 341.8 377.5, 349.4 377.7, 379.8 377.3 C 400.5 377.1, 420.1 377, 423.3 377 C 428.3 377, 429.1 376.8, 428.8 375.3 C 428.5 373.8, 427 373.4, 420.6 372.8 C 405 371.4, 397.1 366.6, 393 356.3 C 391 351.1, 390.7 348.1, 389.9 325.1 C 389.1 296.8, 389.5 49.2, 390.4 48.2 C 390.8 47.9, 391.4 48.1, 391.9 48.6 C 393.1 49.8, 424.8 116.4, 426.6 121.5 C 427.4 123.7, 430.5 130.4, 433.4 136.5 C 444.5 159.3, 462 196.6, 462 197.4 C 462 197.6, 465.1 204.2, 468.9 212.1 C 472.7 220, 477.4 230.6, 479.5 235.5 C 481.5 240.5, 486 250.5, 489.6 257.7 C 493.1 265, 496 271.2, 496 271.5 C 496 272.1, 509.5 301.5, 510.9 304.1 C 511.4 305, 513.6 309.9, 515.8 315.1 C 518 320.3, 521.4 327.9, 523.3 332 C 529.1 344.6, 541 372, 541 372.8 C 541 373.2, 541.9 374.6, 543 376 C 544.3 377.8, 545.2 378.2, 546 377.4 C 546.5 376.9, 551.1 367.4, 556.1 356.4 C 561 345.5, 566.3 334, 567.7 331 C 569.1 328, 571.3 322.7, 572.6 319.2 C 573.9 315.8, 576.8 309.5, 578.9 305.2 C 581.1 300.9, 583.9 294.7, 585.3 291.4 C 588.7 283.4, 596.8 265.4, 601.8 255 C 604 250.3, 607.2 243.1, 609 239 C 625.4 200.2, 630.9 187.7, 639.5 169.5 C 641.8 164.6, 651.9 142.4, 663.9 116 C 667.3 108.6, 670 102.2, 670 101.8 C 670 101.1, 685.6 66.8, 690.1 57.6 C 692.9 51.8, 694.5 50.8, 695.2 54.5 C 695.5 55.9, 695.7 121.5, 695.6 200.3 C 695.5 352.4, 695.6 348, 690.6 357.7 C 685.5 367.8, 678.5 371.8, 664 372.9 C 657 373.4, 655.5 373.8, 655.2 375.3 C 654.9 377, 668.8 377.3, 763.5 377.3 C 775.7 377.3, 779 376.9, 779 375.6 C 779 373.7, 776.7 373, 770 373 C 757 373, 748 368.3, 743.2 359.2 C 737.9 348.9, 738 352.8, 738 197.5 C 738 40.4, 737.8 46.5, 743.8 35.6 C 747.8 28.2, 752.3 25.2, 762.1 22.9 C 766.7 21.9, 772 21, 773.8 21 C 775.5 21, 777 20.6, 777 20.1 C 777 18.5, 767.4 18, 732.3 18 L 696.9 18 694.8 22.8 C 693.7 25.4, 690.4 32.5, 687.4 38.7 C 684.4 44.9, 682 50.2, 682 50.4 C 682 50.7, 679.4 56.7, 676.1 63.7 C 672.9 70.8, 669.9 78.1, 669.5 80 C 669.1 81.9, 668.4 84, 667.9 84.6 C 667.5 85.1, 664.9 90.5, 662.2 96.6 C 659.5 102.6, 655.8 110.7, 654 114.5 C 652.2 118.4, 649.7 124, 648.4 127 C 647 130, 645.3 133.6, 644.5 135 C 643.8 136.4, 641.8 140.9, 640.2 145 C 637.5 151.8, 634.1 159.5, 627.5 173.5 C 626.3 176.3, 621.8 186.6, 617.5 196.5 C 610.2 213.5, 608.8 216.8, 602.4 230.6 C 601 233.6, 597.3 242, 594.1 249.3 C 587.8 263.5, 576.7 288.5, 574.4 293.7 C 573.6 295.4, 573 297.1, 573 297.5 C 573 297.8, 571.9 300.5, 570.6 303.3 C 569.3 306.2, 567.5 310.2, 566.6 312.3 C 565 316.1, 563.4 316.7, 561.8 313.9 C 559.8 310.3, 546.5 281.7, 543.5 274.5 C 541.6 270.1, 537.8 261.6, 535 255.5 C 532.1 249.5, 528.9 242.4, 527.9 239.8 C 526.9 237.1, 525.1 232.6, 523.9 229.8 C 522.8 226.9, 518.5 217.3, 514.3 208.5 C 504.9 188.4, 503.2 184.6, 498.2 173.5 C 493.6 163.2, 489.9 154.9, 482.9 139.9 C 480.2 134.1, 478 129.1, 478 128.7 C 478 128, 468.7 107.5, 461.4 92.1 C 458.4 85.9, 456 80.6, 456 80.5 C 456 80, 439.6 44.3, 433.5 31.5 C 426.3 16.4, 431.9 18, 386.6 18.1 C 365.1 18.2, 346.4 18.5, 345 19 M 946.7 18.7 C 945 20.3, 946.3 21, 950.9 21 C 956.9 21, 969 23.5, 972.9 25.4 C 974.4 26.2, 976.9 28.6, 978.5 30.6 C 984.4 38.3, 984.1 31.9, 984.1 196.2 C 984 295.6, 983.7 348.6, 983 351.6 C 979.8 365.6, 971.9 371.6, 955 372.7 C 949 373.1, 945.9 373.7, 945.6 374.6 C 945.3 375.3, 945.5 376.2, 946 376.5 C 946.8 377, 1052.9 377.5, 1058.8 377.1 C 1059.4 377, 1060 376.4, 1060 375.7 C 1060 374.8, 1057 374, 1050.5 373.2 C 1033 371, 1028.7 367, 1025.4 350.2 C 1023.3 339.4, 1023.3 223.5, 1025.4 222.7 C 1026.1 222.4, 1034.4 222.5, 1043.6 223 C 1063.3 223.9, 1093.4 222.7, 1107 220.4 C 1123.2 217.7, 1140.6 210.4, 1154.5 200.5 C 1174.1 186.5, 1186.4 169.3, 1192.7 146.7 C 1195.2 137.7, 1195.3 103.3, 1192.8 94 C 1187.8 75.3, 1178.9 60.4, 1165 47.4 C 1151.1 34.4, 1128.2 24.1, 1104.4 20 C 1093 18.1, 1088.2 18, 1019.8 18 C 979.9 18, 947 18.3, 946.7 18.7 M 1201.7 18.6 C 1200.1 20.2, 1201.3 20.8, 1207.3 21.5 C 1223 23.2, 1231 28.2, 1234.5 38.6 C 1236.5 44.4, 1236.5 47.1, 1236.5 197 C 1236.5 347, 1236.5 349.6, 1234.5 355 C 1230.4 366.3, 1219.9 373, 1206.4 373 C 1200.8 373, 1197.9 374.3, 1199.6 376 C 1200.4 376.8, 1217.4 377.1, 1257.1 377.2 C 1311.5 377.2, 1313.5 377.2, 1313.5 375.4 C 1313.5 373.9, 1312.7 373.5, 1310 373.5 C 1291.6 373.2, 1282.2 368, 1278.2 355.8 C 1276.2 349.6, 1276.1 347.5, 1275.9 274.2 C 1275.8 227.6, 1276 198.6, 1276.6 198 C 1277.8 196.8, 1460 196.6, 1461.1 197.7 C 1461.6 198.2, 1462.2 230.9, 1462.4 270.4 C 1462.9 345.4, 1462.7 350.6, 1458.7 360.3 C 1455.7 367.4, 1444.3 373, 1432.8 373 C 1428.4 373, 1426.8 373.4, 1426.3 374.5 C 1426 375.4, 1426 376.3, 1426.3 376.6 C 1427.4 377.7, 1537.3 377.1, 1538.4 376 C 1540.1 374.3, 1537.2 373, 1531.3 373 C 1518.2 373, 1507.9 367.3, 1504.8 358.3 C 1501.3 348.2, 1501.1 338, 1501.5 190.5 C 1501.9 32, 1501.6 40, 1507.6 31 C 1511 25.9, 1517.8 22.8, 1529 21.4 C 1532 21, 1535.2 20.4, 1535.9 20 C 1539 18.4, 1523.2 17.9, 1475.5 18.2 C 1435 18.4, 1426.5 18.7, 1426.5 19.9 C 1426.5 20.8, 1428.4 21.3, 1433.5 21.6 C 1445 22.1, 1450.9 24.2, 1455.6 29.3 C 1462.6 37.1, 1462.5 36, 1462.2 116.5 C 1462 155.6, 1461.5 187.8, 1461.1 188.3 C 1460.7 188.7, 1419 188.9, 1368.4 188.8 L 1276.5 188.5 1276.2 118.5 C 1275.9 45.6, 1276.1 40.9, 1280.1 32.8 C 1283.6 25.8, 1288.1 23.7, 1303.8 21.7 C 1309.2 21, 1312.9 20.1, 1312.7 19.5 C 1312.3 18.4, 1202.9 17.5, 1201.7 18.6 M 1897.9 19.6 C 1897.1 20.6, 1896.3 25.3, 1895.9 31.4 C 1895.1 43, 1892.6 67.2, 1891.1 77.5 C 1889.1 91.9, 1889 93.8, 1890.4 95 C 1892.3 96.5, 1891.9 97.6, 1898.4 75.5 C 1903.2 59.1, 1913.3 46.4, 1928.2 38.3 C 1947.7 27.6, 1961.4 25, 1998 25 L 2020.1 25 2021 27.6 C 2022.7 32, 2022.3 335.6, 2020.6 346 C 2017.4 365.4, 2009 372.9, 1990 373 C 1983.1 373, 1979.8 374.2, 1981.5 375.9 C 1982.2 376.6, 1999.6 377, 2030 377 C 2100.9 377.1, 2096 377.2, 2096 375.5 C 2096 374.7, 2095.9 374, 2095.7 374 C 2095.6 374, 2091.6 373.5, 2087 372.9 C 2072.9 371.2, 2067.2 367.5, 2062.8 357 L 2060.5 351.5 2060.5 188.8 C 2060.5 99.4, 2060.9 25.8, 2061.3 25.4 C 2062.2 24.5, 2104.1 24.7, 2116 25.6 C 2142.5 27.7, 2165.6 40.9, 2175.3 59.4 C 2178.7 66, 2181.8 73.9, 2183.1 79.4 C 2183.7 82.2, 2184.8 86.3, 2185.5 88.5 C 2186.2 90.7, 2187.1 93.7, 2187.4 95.3 C 2188.1 98.3, 2190 99, 2190.1 96.3 C 2190.3 91.7, 2189.8 82.8, 2189 75.5 C 2188.4 71.1, 2187.6 61.2, 2187 53.5 C 2184.9 25, 2184.3 19.8, 2182.9 18.9 C 2182.1 18.4, 2119.9 18, 2040.4 18 C 1911.8 18, 1899.1 18.1, 1897.9 19.6 M 3779.5 18.9 C 3774.3 19.7, 3775.9 20.6, 3784 21.4 C 3801.1 23.2, 3807.9 28.3, 3811.3 42.2 C 3813.9 52.4, 3813.9 342.6, 3811.4 352.6 C 3808.2 365.2, 3799.5 371.5, 3783.6 372.7 C 3779.3 373, 3775.5 373.8, 3774.9 374.6 C 3773.3 376.6, 3776.5 377.5, 3785 377.5 C 3875.4 377.2, 3886 377, 3886 375.5 C 3886 373.8, 3884.1 373.3, 3874.8 372.6 C 3864.3 371.8, 3858.6 367.7, 3854.6 358.3 C 3852.6 353.6, 3852.5 351.4, 3852 276.6 C 3851.7 226.1, 3851.8 199.2, 3852.5 198.3 C 3853.3 197.2, 3868.8 197, 3944.8 197 C 3995.1 197, 4036.6 197.2, 4037.1 197.6 C 4037.6 197.9, 4038 229.1, 4038 273 C 4038 344.6, 4037.9 348.1, 4036 354.2 C 4032.7 365, 4025.9 370, 4010.8 372.9 C 4005.9 373.8, 4001.8 375, 4001.7 375.5 C 4001.5 376.5, 4109.2 378, 4113.3 377.1 C 4114.3 376.9, 4115 376, 4114.8 375.1 C 4114.6 373.9, 4112.8 373.3, 4107.3 372.9 C 4090.5 371.4, 4083.5 367.1, 4079.5 356 C 4077.5 350.6, 4077.5 347.1, 4077.2 200.5 C 4077.1 101.6, 4077.3 48.7, 4078 45 C 4079.6 36.3, 4083.5 29.4, 4088.3 26.6 C 4097.7 21.2, 4117.4 19.5, 4131.8 23 C 4144 25.9, 4148.7 28.7, 4155.5 37.2 C 4159 41.5, 4170 57.7, 4170 58.5 C 4170 59.2, 4185 86.2, 4187 89 C 4187.9 90.4, 4189 92.2, 4189.3 93 C 4189.7 93.8, 4190.8 95.9, 4191.8 97.5 C 4192.8 99.2, 4196.5 105.9, 4200 112.5 C 4203.4 119.1, 4208.2 127.9, 4210.5 132 C 4216 141.8, 4219.8 148.7, 4225 158.5 C 4232.2 172, 4236.2 179.3, 4239.6 185 C 4241.3 188, 4246.9 198.1, 4252 207.4 L 4261.1 224.4 4260.8 288.4 C 4260.5 348.7, 4260.4 352.8, 4258.6 357 C 4254.3 367.1, 4247.3 371.7, 4234.3 372.8 C 4227.1 373.4, 4225.5 373.8, 4225.2 375.3 C 4224.9 376.9, 4228.1 377, 4281.9 377 C 4329.6 377, 4339 376.8, 4339 375.6 C 4339 374.6, 4336.8 374.1, 4330.9 373.6 C 4319.4 372.5, 4314.1 370.7, 4309.9 366.3 C 4301.6 357.5, 4300.8 349.8, 4301.2 276 L 4301.5 217.5 4312.6 197.5 C 4333 161, 4339.1 149.6, 4345.2 137 C 4348.6 130.1, 4352.3 122.9, 4353.5 121 C 4354.7 119.1, 4359.2 110.5, 4363.6 102 C 4380.1 69.5, 4395.4 43.5, 4401 38.4 C 4411.6 28.8, 4421.1 23.6, 4431.8 21.5 C 4435.3 20.8, 4436 19.6, 4433.4 18.6 C 4431.3 17.8, 4363 17.8, 4355.2 18.6 C 4348.3 19.4, 4347.8 21, 4354.4 21 C 4359.5 21, 4368.3 23.5, 4372.7 26.1 C 4379.2 30.1, 4382 38.4, 4380.1 48.5 C 4379 54.2, 4367.5 79.6, 4363.2 85.8 C 4361.2 88.6, 4355.4 99.4, 4344.6 120.2 C 4332.8 142.9, 4322 163.2, 4315.1 175.5 C 4312.3 180.5, 4307.5 189.6, 4304.5 195.8 C 4301.2 202.4, 4298.4 207, 4297.7 206.7 C 4296.2 206.2, 4291.6 199.8, 4288.7 194 C 4287.4 191.5, 4284.6 186.4, 4282.4 182.5 C 4280.1 178.7, 4276.3 171.7, 4273.8 167 C 4269.1 158.2, 4265 150.7, 4259.5 140.5 C 4257.7 137.2, 4253.6 129.6, 4250.5 123.5 C 4247.3 117.5, 4244 111.4, 4243 110 C 4242 108.6, 4239.2 103.5, 4236.7 98.5 C 4234.1 93.6, 4230.5 87, 4228.5 84 C 4226.6 81, 4225 78.2, 4225 77.8 C 4225 77.4, 4223.7 74.9, 4222.1 72.2 C 4212.1 55.2, 4206.9 43, 4206.8 36.3 C 4206.7 27.1, 4212.8 22.6, 4227 21.3 C 4233.6 20.7, 4234.8 19.4, 4229.8 18.5 C 4223.4 17.4, 4002.7 18.4, 4002.3 19.6 C 4002.1 20.3, 4004.6 20.9, 4009.4 21.3 C 4025.1 22.7, 4032.9 28.1, 4036.3 40.1 C 4037.9 46, 4038 52, 4037.8 117.5 L 4037.5 188.5 3945 188.5 L 3852.5 188.5 3852.2 115.5 C 3852 34.3, 3851.9 35.2, 3858.4 28.7 C 3862 25.1, 3870 22.3, 3879.7 21.3 C 3883 20.9, 3884.9 20.3, 3884.7 19.6 C 3884.3 18.4, 3787 17.7, 3779.5 18.9 M 1696 20.5 C 1685.5 22.3, 1673.6 26.4, 1665.9 30.8 C 1662.3 32.8, 1656 36.3, 1651.9 38.5 C 1646.3 41.5, 1641.5 45.5, 1632 55 C 1603.7 83.2, 1591.1 111.6, 1584.5 162.2 C 1579.1 203, 1586.8 256.4, 1602.6 288.3 C 1620.4 324.4, 1644.4 350.1, 1673.5 364.5 C 1689.1 372.1, 1696.6 374.1, 1713.2 374.7 C 1747.7 376.1, 1775.6 364.8, 1800.4 339.6 C 1812.7 327.1, 1825.7 307.4, 1830.3 294.5 C 1831.1 292.3, 1832.9 288, 1834.3 285 C 1838.8 275.3, 1843.7 256.1, 1846.7 236.5 C 1848.9 221.6, 1849.3 179.9, 1847.2 168 C 1842.9 143.9, 1840.3 134.2, 1832.8 115.5 C 1826 98.4, 1823.2 93.2, 1811.3 75.3 C 1794.9 50.7, 1766.1 29.8, 1738.3 22.4 C 1726.4 19.2, 1707.8 18.4, 1696 20.5 M 2352.5 19.6 C 2335 22.4, 2323.8 26.5, 2305.6 36.8 C 2295.5 42.5, 2292 45.2, 2282.4 54.6 C 2264.8 72, 2253.4 91.3, 2242.7 122 C 2240.3 128.8, 2235.4 150.4, 2234.1 160 C 2229.3 193.9, 2233.3 237.1, 2243.7 264 C 2252.4 286.7, 2256.3 295.3, 2262.5 305.4 C 2265 309.5, 2267 313.2, 2267 313.5 C 2267 314.9, 2274.6 324.6, 2281 331.5 C 2299.3 351.1, 2311.2 359.6, 2332.9 368.5 C 2354.8 377.5, 2385.5 377.3, 2408.9 367.9 C 2434 357.9, 2451.6 343.2, 2467.5 319 C 2472 312.1, 2476.7 304.6, 2477.9 302.2 C 2480.9 296.4, 2489 274.6, 2490.6 268.5 C 2491.2 265.8, 2492.5 260.8, 2493.4 257.5 C 2501.1 229.5, 2502.8 192.7, 2497.9 164.5 C 2495.8 153.1, 2489.1 127.1, 2486.4 120.3 C 2476.3 94.8, 2461.6 71.7, 2444.5 54.6 C 2434.6 44.7, 2431.9 42.7, 2419.9 35.9 C 2404.8 27.4, 2395.8 23.5, 2386.1 21.4 C 2379.4 19.9, 2358 18.8, 2352.5 19.6 M 1025.2 26.2 C 1023.2 28.2, 1023.5 213.3, 1025.5 215 C 1029 217.9, 1064.6 218.9, 1077.5 216.5 C 1092.4 213.6, 1099.8 210.6, 1111.5 202.8 C 1127.4 192.1, 1142.5 171.9, 1147.3 155 C 1151.4 140.5, 1152.3 132.9, 1151.7 118 C 1150.4 87.3, 1141 65.2, 1121.2 46.8 C 1112.6 38.8, 1092.2 29.6, 1076 26.5 C 1066.3 24.6, 1027 24.4, 1025.2 26.2 M 2978.3 27.6 C 2976.9 32.7, 2977.6 196.8, 2979 198.5 C 2980 199.8, 2984 200, 3002.9 200 C 3026.1 200, 3035.3 199.2, 3044.3 196.4 C 3072.7 187.7, 3091.9 167.9, 3099.7 139.2 C 3102.1 130.5, 3102.3 127.7, 3102.4 112 C 3102.4 92.4, 3101 85.2, 3094.4 71.5 C 3084.6 51.1, 3078.4 44.4, 3060.8 35.7 C 3042.8 26.7, 3038.3 25.9, 3006.3 25.3 L 2979.1 24.8 2978.3 27.6 M 3602.3 26.2 C 3601.3 28, 3600.7 192, 3601.7 205 L 3602.5 215.5 3607 216.2 C 3617.6 217.8, 3639.8 218.2, 3649.9 217.1 C 3664.8 215.3, 3673.3 212.1, 3688 202.6 C 3714.1 185.8, 3729 156.3, 3729 121.3 C 3729 90.8, 3719.3 66.8, 3699.4 47.9 C 3688.9 38.1, 3670.6 29.8, 3652.1 26.6 C 3640.4 24.6, 3603.5 24.3, 3602.3 26.2 M 3341.2 84.1 C 3337.1 92.9, 3333.2 102.3, 3330.5 110 C 3328.5 115.7, 3323.5 128.2, 3319.6 137.5 C 3318.9 139.2, 3317.7 142.1, 3317 144 C 3316.3 145.9, 3314.5 150.2, 3313 153.5 C 3311.4 156.8, 3308.8 162.9, 3307.2 167 C 3298.8 188.2, 3295.7 196, 3289 212.3 C 3285.1 222, 3282 230.6, 3282.3 231.4 C 3282.7 232.4, 3291.4 232.9, 3325.3 233.4 C 3373.3 234.3, 3404.9 233.5, 3405.7 231.4 C 3405.9 230.7, 3400.1 214.9, 3392.7 196.3 C 3385.3 177.7, 3378.9 161.4, 3378.5 160 C 3377.9 157.8, 3372.4 144, 3358.7 110 C 3356.9 105.3, 3353.6 97, 3351.5 91.5 C 3349.4 86, 3346.9 80.6, 3345.9 79.6 C 3344.2 77.8, 3344 77.9, 3341.2 84.1 M 1179 547.6 C 1164.1 549.2, 1156.5 552.5, 1149 560.6 C 1139.5 571.1, 1136 579.6, 1135.9 592.6 C 1135.7 607, 1139.8 616.6, 1150.2 626.7 C 1158.1 634.5, 1165.4 637.5, 1176 637.4 C 1186.4 637.4, 1195.6 636.2, 1199.2 634.4 C 1202.4 632.7, 1208.6 632.6, 1209.5 634 C 1210 634.8, 1210.6 634.7, 1211.6 633.9 C 1212.7 633, 1213 629.5, 1213 618.3 C 1213 604.2, 1213 603.9, 1215.6 601.3 C 1219.8 597.1, 1218.4 596.3, 1207.6 596.5 C 1196.2 596.7, 1194.8 597.5, 1199 601.5 C 1202 604.4, 1202 604.4, 1202 615.5 C 1202 628.1, 1202.1 628, 1193.5 632.6 C 1189.1 634.9, 1187.7 635.2, 1181.8 634.7 C 1161.4 633, 1149.6 617.5, 1149.5 592.5 C 1149.5 571.6, 1155.3 560.2, 1169.6 553.4 C 1179.2 548.9, 1185.6 548.7, 1194.2 553 C 1200.6 556.2, 1203.3 558.9, 1206.5 565.4 C 1209.9 572.2, 1211.5 570.9, 1211.2 561.5 C 1211.1 557.2, 1210.6 553.2, 1210.2 552.8 C 1208.3 550.9, 1184.9 547, 1179 547.6 M 1365.5 548 C 1365.1 548.6, 1366.2 549, 1368.2 549 C 1374.9 549, 1380 555.5, 1380 563.9 C 1380 569.8, 1378.3 573.8, 1374 577.9 C 1369.2 582.5, 1370.7 584.9, 1376.1 581.2 C 1384.7 575.5, 1388 570.4, 1388 563.1 C 1388 555.7, 1384.7 551.1, 1377.6 548.3 C 1373.7 546.9, 1366.3 546.7, 1365.5 548 M 1677.7 548.7 C 1668 550.9, 1656.4 559.4, 1650.6 568.4 C 1645 577.2, 1644 581, 1644 592.9 C 1644 610, 1648.2 619.2, 1659.7 627.7 C 1667.6 633.6, 1670.8 635.3, 1677 636.8 C 1680.6 637.8, 1690.7 637.9, 1693 637 C 1694 636.7, 1689.4 635.1, 1687 635.1 C 1682.8 634.9, 1672.7 629.5, 1668.3 624.9 C 1655.9 611.9, 1653.5 584.1, 1663.3 566 C 1666.9 559.3, 1669.8 556.5, 1677 552.8 C 1682.5 550, 1692.2 548.9, 1693.4 550.9 C 1693.7 551.4, 1695.5 552.1, 1697.5 552.4 C 1702.4 553.4, 1711.4 561.9, 1715.1 569.2 C 1724.1 586.9, 1722.7 610.6, 1711.9 624 C 1708.3 628.4, 1701.1 633.4, 1696.8 634.4 C 1692.9 635.3, 1693.3 637, 1697.5 637 C 1702.7 637, 1710.7 633, 1718.2 626.7 C 1730.1 616.6, 1734.5 606.2, 1733.9 589.8 C 1733.5 581.3, 1733.1 579.6, 1729.8 572.9 C 1720.1 553.5, 1699.4 543.8, 1677.7 548.7 M 2807.5 547.7 C 2792.8 549.5, 2779.5 558, 2772.7 570 C 2758.5 595.1, 2768.8 625, 2795.3 635.6 C 2801.8 638.1, 2802.9 638.3, 2812.8 637.7 C 2823.5 637.1, 2827.5 636, 2834.5 631.5 C 2850.1 621.6, 2858.2 605.4, 2856.6 587.5 C 2856.2 583.7, 2855.5 580.1, 2855 579.6 C 2854.4 579, 2854 578.1, 2854 577.4 C 2854 574.9, 2845.8 562, 2842 558.6 C 2832.9 550.4, 2819.7 546.2, 2807.5 547.7 M 3196 548.9 C 3182.2 552.4, 3174.3 559.1, 3166 574.5 C 3163.2 579.7, 3162.7 581.7, 3162.3 590 C 3161.4 606.1, 3165.4 617.5, 3175.1 626.4 C 3184.6 635.2, 3192.2 638.1, 3206.1 638.1 C 3215.8 638.2, 3220.4 637.2, 3228.3 633.4 C 3231.5 631.9, 3232.6 631.8, 3235.2 632.8 C 3240.5 634.8, 3241 633.6, 3241 617.6 C 3241 606.6, 3241.3 602.9, 3242.5 601.4 C 3245.5 597.5, 3244.6 597, 3233.5 597 C 3223.2 597, 3220.9 597.8, 3225 600 C 3228.5 601.9, 3230 606.3, 3230 615.2 C 3230 625.5, 3228.9 627.7, 3222 631.5 C 3217.2 634.1, 3215.5 634.5, 3208.5 634.5 C 3195.5 634.5, 3186.9 628.8, 3181 616.3 C 3173.3 600, 3173.4 585.7, 3181.5 568.4 C 3186.2 558.4, 3191.7 553.9, 3203.2 550.5 C 3208.8 548.9, 3209.1 548.9, 3216.1 551.2 C 3224.6 553.9, 3231.4 559.4, 3234.1 565.7 C 3235.2 568.3, 3236.6 570, 3237.6 570 C 3239.1 570, 3239.2 569.1, 3238.6 561.8 C 3238.2 557.2, 3237.5 553.2, 3237.2 552.8 C 3236.4 552.1, 3228.6 550.4, 3220 549.1 C 3208.6 547.3, 3202.5 547.3, 3196 548.9 M 382 549.4 C 381.2 550.4, 381.8 551.4, 384.3 553.3 C 388 556.1, 388.9 557.9, 396 577.5 C 402.2 594.7, 407.7 609.1, 410.1 614.7 C 411.2 617, 412 619.3, 412 619.8 C 412 620.3, 413.1 623.2, 414.3 626.1 C 415.6 629.1, 417.2 632.8, 417.8 634.3 C 418.8 636.6, 419.3 636.9, 420.9 636 C 422 635.5, 423.1 633.6, 423.5 631.9 C 423.9 630.2, 424.8 627.7, 425.6 626.2 C 426.4 624.7, 427 622.7, 427 621.7 C 427 620.7, 427.7 618.3, 428.6 616.2 C 429.5 614.2, 432.8 605.8, 436 597.6 C 439.1 589.3, 442.1 582.5, 442.7 582.3 C 443.3 582.1, 447.2 591.3, 451.4 602.7 C 464 636.7, 463.9 636.5, 466.4 636.5 C 468.2 636.5, 470.2 631.9, 474 619.5 C 475.8 613.6, 478.2 606.5, 479.1 604.5 C 479.6 603.4, 481.6 597.7, 483.5 591.7 C 485.5 585.8, 488.6 577.5, 490.4 573.2 C 492.3 569, 494.4 563.7, 495.1 561.5 C 495.9 559.3, 498.2 555.8, 500.3 553.7 C 502.4 551.6, 503.8 549.5, 503.5 549 C 503.2 548.4, 499.3 548, 494.9 548 C 485.7 548, 484.3 549.2, 488.5 553.4 C 490.7 555.6, 491 556.6, 490.5 559.3 C 489.7 563.2, 486.1 574.1, 481 588 C 478.9 593.8, 476.2 601.7, 475 605.7 C 472.3 614.6, 470.8 616.9, 468.8 615.2 C 467.4 614.1, 465.4 609.2, 455.6 583 C 453 576.1, 450.2 569, 449.4 567.1 C 448.6 565.3, 447.7 561.9, 447.4 559.5 C 446.8 555.8, 447.1 555, 449.6 552.7 L 452.4 550.1 449.8 549.1 C 448.3 548.6, 443 548.2, 437.8 548.3 C 430.3 548.5, 428.5 548.8, 428.2 550.1 C 428.1 551, 429 552.1, 430.5 552.8 C 434.5 554.6, 440.9 571.5, 439.4 576.4 C 438.6 579.3, 432.8 594.9, 430.5 600.5 C 428.9 604.3, 427.2 609.6, 426.5 613.3 C 426.1 615.2, 425.4 616, 424.3 615.8 C 422.2 615.4, 421.9 614.7, 416.5 599.5 C 410.7 583.3, 408.1 576.4, 406.5 572.5 C 405.8 570.9, 404.2 566.4, 403.1 562.6 C 401.1 556.2, 401.1 555.5, 402.6 553.2 C 403.5 551.9, 403.8 550.4, 403.3 549.9 C 401.8 548.4, 383.3 548, 382 549.4 M 557 549 C 554.6 549.6, 553 552, 555 552 C 558.3 552, 558.8 557.9, 558.2 594.3 L 557.7 630.2 555.3 633 C 554 634.6, 553.3 636.1, 553.8 636.4 C 554.3 636.7, 567.9 636.9, 584.2 636.9 C 608.8 637, 614 636.7, 615 635.5 C 616.3 634, 618.4 620, 617.4 619.1 C 617.1 618.8, 614.5 621.1, 611.7 624.3 C 604.9 631.8, 601.3 633.2, 586.9 633.8 L 575.4 634.3 573.2 631.5 C 571.1 628.8, 571 627.9, 571.2 611.6 L 571.5 594.5 582.3 594.5 C 592.9 594.5, 593.2 594.6, 595.5 597.2 C 596.8 598.7, 598 600.5, 598.3 601.2 C 599.9 605.8, 601.9 591.6, 600.6 584.5 C 599.8 580.2, 599.1 580.2, 596.5 584.3 C 595.3 586.2, 593 588, 591 588.7 C 586.4 590.3, 573.8 590.4, 572.2 588.8 C 570.2 586.8, 570.5 553.6, 572.5 552 C 573.6 551.1, 573.7 550.3, 573.1 549.7 C 572 548.6, 560.7 548.1, 557 549 M 594 549.1 C 591.6 550.2, 591.7 550.3, 596.7 552 C 602.3 553.8, 604.4 555.2, 607.3 558.8 C 610.7 562.9, 612.1 564, 613.2 563.4 C 614.8 562.4, 613.3 550.8, 611.5 549.4 C 609.6 548, 597.2 547.8, 594 549.1 M 670.8 548.7 C 668.4 549.3, 668.6 550.5, 671.5 553.4 L 674 555.9 674 592.8 C 674 628.6, 673.9 629.8, 671.9 632.4 C 670.8 633.8, 670.2 635.5, 670.5 636.1 C 671.2 637.1, 692.4 637.3, 696.3 636.3 C 699.1 635.6, 697.2 634, 693.5 634 C 687 634, 687 634.1, 687 591.5 C 687 569.9, 687.4 552.9, 688 552 C 689.7 549.3, 687.2 548.2, 679.7 548.2 C 675.7 548.3, 671.7 548.5, 670.8 548.7 M 703.3 548.7 C 700.5 549.2, 700.3 551, 703 551 C 704 551, 707.4 551.9, 710.4 553 C 729.4 560.1, 739.1 582.6, 733.1 605.5 C 728.7 622.6, 722.5 629, 705.5 634.1 C 699.9 635.7, 699.7 635.9, 703 636.1 C 713.3 636.7, 720 634.9, 728.8 629.2 C 752.9 613.5, 755.3 578.4, 733.5 559.2 C 726 552.6, 710.6 547.3, 703.3 548.7 M 806.8 548.7 C 803 548.9, 800 549.4, 800 549.9 C 800 550.3, 801.1 551.6, 802.5 552.8 L 805 555 805 592.1 C 805 627.9, 804.9 629.4, 802.9 632.6 L 800.9 635.9 803.4 636.6 C 804.8 636.9, 815 637, 826.2 636.7 C 845.9 636.3, 846.8 636.2, 852.4 633.5 C 861.6 629.1, 869.1 622.3, 873.2 614.4 C 885.4 590.9, 877.9 564.8, 855.7 553.7 C 847.7 549.7, 835 547.4, 835 549.9 C 835 550.5, 835.8 551.3, 836.8 551.7 C 837.7 552, 840.4 553.1, 842.7 554.1 C 845 555.2, 847.3 556, 847.7 556 C 849.9 556, 858.6 566.1, 861.3 571.9 C 863.9 577.4, 864.4 579.8, 864.8 588.7 C 865.8 611.9, 859.5 624.3, 843 631.5 C 836.6 634.3, 820.4 634.3, 818.3 631.4 C 817.2 629.9, 817 622.3, 817 589.8 C 817.1 567.9, 816.9 549.6, 816.5 549 C 816.2 548.5, 815.3 548.1, 814.7 548.2 C 814 548.3, 810.5 548.5, 806.8 548.7 M 934.1 549 C 931.7 549.6, 929.9 552, 931.9 552 C 932.5 552, 933.6 553.3, 934.5 555 C 935.8 557.4, 936 563.5, 936 592.8 L 936 627.7 933.4 631.5 C 931.4 634.5, 931.1 635.5, 932.2 636.1 C 934.1 637.3, 952.8 637.2, 953.5 636 C 953.8 635.5, 952.9 633.9, 951.3 632.6 L 948.5 630.2 948.2 593.2 L 947.9 556.2 950.5 553.2 C 952.1 551.3, 952.7 549.9, 952 549.5 C 950.6 548.6, 937.2 548.2, 934.1 549 M 1008.6 549.1 C 1006.7 550.3, 1006.8 550.4, 1009.4 552.5 C 1010.9 553.7, 1012.5 556.3, 1013 558.3 C 1013.4 560.3, 1013.5 577.1, 1013.3 595.7 C 1012.9 627.2, 1012.7 629.6, 1010.9 631.6 C 1007.2 635.5, 1008.9 637, 1017 637 C 1023 637, 1023.9 635.8, 1020.7 632.1 C 1018.6 629.6, 1018.2 627.9, 1017.8 618.9 C 1016.8 601, 1017.4 564.7, 1018.6 564.3 C 1019.6 564, 1028.3 574.2, 1035.5 584 C 1036.9 585.9, 1041.7 592.2, 1046.3 598 C 1050.8 603.7, 1057 611.8, 1060 616 C 1074.9 636.7, 1076.8 638.8, 1078.4 636.1 C 1078.7 635.6, 1079 626.7, 1079 616.3 C 1079 606, 1079.3 587.9, 1079.7 576.1 C 1080.3 555, 1080.4 554.6, 1082.7 552.4 C 1086.3 549.1, 1084.8 548, 1077 548 C 1069 548, 1067.5 549.3, 1071.6 552.5 L 1074.5 554.8 1074.8 583.1 C 1075 601.9, 1074.7 611.7, 1074 612.4 C 1072.8 613.6, 1069.5 610, 1061.3 598.2 C 1058.1 593.7, 1053.1 586.9, 1050.2 583.2 C 1037.7 567.3, 1027 552.9, 1027 552 C 1027 549.2, 1012.2 546.9, 1008.6 549.1 M 1358.5 549.6 C 1351.5 553.2, 1347 560.1, 1347 567.4 C 1347 571.7, 1351.1 581.2, 1354.6 585.2 C 1356.4 587.1, 1355 590.2, 1351.6 591.8 C 1346.9 594, 1335.9 604.2, 1334.5 607.6 C 1332.2 613.1, 1332.6 619.3, 1335.6 625.7 C 1342.1 639.4, 1363.4 643.5, 1377.4 633.7 C 1383.6 629.4, 1382.7 627.6, 1376.1 630.9 C 1365.6 636.3, 1351.3 631.7, 1346.9 621.6 C 1343.5 614, 1343.8 606.1, 1347.6 600.8 C 1351.3 595.6, 1357.2 592.1, 1359.7 593.6 C 1362.4 595.2, 1384 624.2, 1384 626.1 C 1384 627.1, 1385.1 628.1, 1386.5 628.4 C 1387.9 628.8, 1391.1 630.6, 1393.5 632.5 C 1400.7 637.9, 1408.7 639.4, 1415.6 636.5 C 1420.5 634.5, 1420 631.4, 1414.8 631.8 C 1410.5 632.2, 1405.1 629.6, 1399.8 624.6 C 1395.3 620.5, 1394.9 617.1, 1398.3 612.6 C 1400.6 609.6, 1405.9 599.2, 1407.9 593.7 C 1408.5 592.2, 1410.6 590, 1412.6 588.8 C 1415.9 586.9, 1416.1 586.5, 1414.5 585.4 C 1412.4 583.9, 1399.1 583.7, 1397.3 585.2 C 1396.3 586, 1396.7 586.9, 1399 589 C 1403 592.8, 1403 597.8, 1398.9 607.6 C 1394.5 618.1, 1393.4 617.8, 1381.3 603.5 C 1371.3 591.8, 1368.6 587.6, 1369.4 585.5 C 1369.7 584.7, 1368.7 583.7, 1367.1 583 C 1363.9 581.7, 1358.1 571, 1357.3 564.9 C 1356.6 559.7, 1357.4 557.1, 1361 553.2 C 1365.3 548.5, 1364 546.7, 1358.5 549.6 M 1536.3 548.8 C 1533.4 549.2, 1533.4 549.6, 1536.8 553.4 L 1539.5 556.5 1539.5 592.7 L 1539.4 629 1536.5 632 C 1532.6 636.1, 1534 637, 1545 637 C 1555.7 637, 1557.4 636.1, 1554 632.5 C 1551.6 629.9, 1551.5 629.5, 1551.6 615.2 C 1551.7 607.1, 1551.7 599.2, 1551.7 597.5 C 1551 580.7, 1551.7 553.1, 1552.8 551.7 C 1553.9 550.5, 1553.9 550, 1552.8 549.4 C 1551.5 548.5, 1540.2 548.1, 1536.3 548.8 M 1790 548.8 C 1785.6 550, 1785.6 550, 1788.3 552.6 L 1791 555.1 1791 592.1 C 1791 628.2, 1790.9 629.1, 1788.9 631.9 C 1787.7 633.5, 1787.1 635.3, 1787.4 635.9 C 1788.3 637.3, 1807.6 637.4, 1808.5 636.1 C 1808.8 635.5, 1807.8 634, 1806.3 632.6 L 1803.5 630 1803.4 614.7 C 1803.3 606.4, 1803.6 598.8, 1804.1 597.9 C 1805.3 595.6, 1809.8 594.9, 1814.4 596.3 C 1819.2 597.8, 1822.9 602.3, 1827.6 612.6 C 1835.1 629.1, 1837.8 633.3, 1842.1 635.5 C 1846 637.5, 1855.5 637.9, 1857.2 636.1 C 1858.3 635, 1858.3 634.7, 1857.2 634.3 C 1852.7 632.6, 1846.9 625.2, 1839.5 611.5 C 1837.5 607.7, 1834.2 602.6, 1832.3 600.2 C 1828.3 595.4, 1828.7 594, 1834.7 591.5 C 1843.6 587.8, 1849 580.1, 1849 571.4 C 1848.9 559.9, 1840.7 551.6, 1826.8 549 C 1821.3 547.9, 1810 548.8, 1810 550.3 C 1810 550.8, 1811.3 551, 1813 550.7 C 1815.9 550.1, 1820.1 551.3, 1826.8 554.8 C 1838.2 560.7, 1838.5 580.1, 1827.3 588.7 C 1824.1 591.2, 1822.7 591.5, 1814.7 591.9 C 1809.8 592, 1805.4 591.8, 1804.8 591.2 C 1803.4 589.8, 1802.5 559.2, 1803.8 554.5 C 1804.5 552.2, 1804.6 550.2, 1804.1 549.7 C 1803.1 548.7, 1792.5 548, 1790 548.8 M 1898.9 549 C 1896.9 549.5, 1896.4 550.6, 1895.4 556.5 C 1893.7 566.1, 1893.7 567, 1895.8 567 C 1896.9 567, 1898.4 565.1, 1900 561.8 C 1903.1 555.4, 1907.2 552.5, 1914.5 551.5 C 1917.5 551.2, 1920 550.4, 1920 549.9 C 1920 548.7, 1903.3 548, 1898.9 549 M 1926.5 549 C 1926.2 549.4, 1926.2 566.8, 1926.4 587.7 C 1926.5 608.5, 1926.3 627, 1925.8 628.8 C 1925.3 630.6, 1924 632.6, 1922.9 633.3 C 1918.5 636.1, 1920.7 637, 1931.9 637 C 1944 637, 1945.6 636.2, 1941.6 632.5 L 1939 630.1 1939.2 590.8 L 1939.5 551.5 1947.2 551.6 C 1956.5 551.8, 1960 553.7, 1964.9 561.2 C 1969.8 568.6, 1970.9 567.7, 1970 557.3 C 1969.2 548.1, 1968.4 547.7, 1954.5 548.6 C 1948.5 549, 1942.6 549.3, 1941.5 549.2 C 1940.4 549.2, 1936.7 548.9, 1933.3 548.6 C 1929.8 548.4, 1926.8 548.5, 1926.5 549 M 2020.5 548.8 C 2016.9 549.5, 2016.5 550.9, 2019.3 553 L 2022 555.1 2022 592 L 2022 628.8 2019.4 631.9 C 2018 633.6, 2017.1 635.4, 2017.5 636 C 2018.4 637.4, 2038.7 637.3, 2039.6 635.9 C 2039.9 635.3, 2038.8 633.4, 2037.1 631.6 L 2034 628.4 2034 613.7 C 2034 600.3, 2034.2 598.8, 2036 597 C 2038.4 594.6, 2038.4 594.6, 2044.4 596.6 C 2049.7 598.4, 2052.8 602.5, 2062.5 620.4 C 2065.1 625.3, 2068.8 631, 2070.7 633.1 C 2074.1 636.8, 2074.5 637, 2080.6 637 C 2084.1 637, 2087.2 636.5, 2087.6 635.9 C 2087.9 635.3, 2086.2 633, 2083.6 630.7 C 2080.8 628.1, 2077.5 623.5, 2075 618.7 C 2068.4 605.8, 2061.8 597, 2058.9 597 C 2056.8 597, 2058.2 593.9, 2060.8 592.9 C 2072.7 588.5, 2077.4 583.7, 2079.5 574.2 C 2080.4 569.8, 2076.9 560.3, 2072.9 556.2 C 2069.2 552.4, 2059.4 549, 2052.4 549 C 2045.2 549, 2044.8 550.5, 2051.4 552.4 C 2061.7 555.4, 2066 561.2, 2066 572.1 C 2066 583, 2059.8 590.3, 2049.2 592.1 C 2033.8 594.6, 2033.8 594.6, 2034.2 571.3 C 2034.5 555, 2034.7 552.7, 2036.3 551.5 C 2038 550.3, 2038 550.2, 2036.3 549.5 C 2034.2 548.7, 2023.5 548.2, 2020.5 548.8 M 2255.4 549.3 C 2254 550.1, 2254.2 550.6, 2256.6 552.5 L 2259.5 554.8 2259.7 591.2 C 2259.9 625.8, 2259.8 627.7, 2257.9 630.9 C 2254.7 636.3, 2255.7 637, 2265.9 637 C 2270.9 637, 2275.2 636.6, 2275.5 636 C 2275.9 635.4, 2275 633.6, 2273.6 632 L 2271.1 628.9 2271.1 592.3 L 2271.2 555.7 2274.2 553 C 2276.5 550.9, 2276.9 550, 2275.8 549.4 C 2274 548.3, 2257.4 548.2, 2255.4 549.3 M 2329.3 549.6 C 2326.8 551.3, 2324.8 568, 2326.9 568 C 2327.5 568, 2329.3 565.4, 2331 562.2 C 2334.8 555, 2339.7 552, 2348.3 551.6 C 2358.7 551.2, 2358 548.4, 2358 591.8 L 2358 629.4 2355.3 632.2 C 2353 634.6, 2352.8 635.2, 2354 636.1 C 2355.7 637.2, 2373.4 636.9, 2374.6 635.7 C 2375 635.3, 2374.2 633.7, 2372.7 632.2 L 2370 629.4 2370 591.6 C 2369.9 564.2, 2370.2 553.4, 2371.1 552.4 C 2373.4 549.6, 2388.2 551.7, 2392.3 555.5 C 2393.6 556.8, 2395.7 559.9, 2397 562.4 C 2400.6 569.9, 2401.9 568.2, 2401 557.3 C 2400.7 553.9, 2399.9 550.5, 2399.3 549.9 C 2397.6 548.2, 2331.5 547.9, 2329.3 549.6 M 2632.3 549.6 C 2632.1 550.2, 2633 551.9, 2634.4 553.3 L 2637 555.9 2637 591.7 L 2637 627.5 2634.4 631.4 C 2631 636.4, 2631.9 637, 2644.2 637 C 2654.8 637, 2656.5 636.1, 2652.8 632.6 C 2650.4 630.5, 2650.3 629.6, 2649.6 614.2 C 2649.2 603.3, 2649.3 597.3, 2650 596 C 2651 594.1, 2652.1 594, 2672 594 C 2691.7 594, 2693 594.1, 2694 595.9 C 2695.3 598.4, 2695.3 624.4, 2694 628.9 C 2693.5 630.7, 2692.3 632.8, 2691.4 633.5 C 2688.1 635.8, 2690.9 637, 2699.8 637 C 2710.7 637, 2712 636.3, 2709.2 632.2 C 2707.1 629.3, 2707 628.3, 2706.9 592 L 2706.8 554.8 2709.6 552.4 C 2713.7 549.1, 2711.6 548.1, 2701 548.4 C 2690.1 548.7, 2689.2 549.2, 2692.5 553.2 C 2694.9 556.1, 2695 556.6, 2695 571 C 2695 579.2, 2694.7 586.5, 2694.4 587.4 C 2693.9 588.8, 2691 589, 2672.5 589 C 2660.7 589, 2650.9 588.6, 2650.6 588.2 C 2650.3 587.7, 2650 580.1, 2649.9 571.1 C 2649.8 555.7, 2649.8 554.8, 2651.9 552.6 C 2653.6 550.8, 2653.8 550, 2652.9 549.4 C 2650.7 548.1, 2632.8 548.2, 2632.3 549.6 M 2906.3 549 C 2903.9 550, 2903 553.2, 2902.7 561.5 C 2902.4 568.1, 2904.5 568.1, 2907.9 561.6 C 2911.3 555, 2914.6 552.8, 2922 551.9 C 2928.3 551.2, 2929.9 550.5, 2928.6 549.3 C 2927.5 548.1, 2908.8 547.9, 2906.3 549 M 2932.2 549.1 L 2929.8 550 2931.8 552.5 C 2933.7 554.9, 2933.8 556.6, 2933.7 592 L 2933.7 629 2930.6 632.1 C 2928.2 634.6, 2927.9 635.3, 2929.1 636.1 C 2931 637.3, 2950.7 637.3, 2951.5 636 C 2951.8 635.4, 2950.8 633.8, 2949.1 632.4 L 2946 629.8 2946 591.8 C 2946 567.5, 2946.4 553.2, 2947 551.9 C 2947.9 550.3, 2947.7 549.8, 2945.5 549 C 2942.3 547.8, 2935.3 547.8, 2932.2 549.1 M 2955.5 548.7 C 2950.3 549.3, 2948.4 551, 2953.1 551 C 2958.5 551, 2966.4 553.7, 2969.3 556.5 C 2970.7 558, 2972.8 561.1, 2973.9 563.5 C 2978 572.2, 2979.4 570.4, 2977.8 558.5 C 2976.7 550.8, 2976.3 549.7, 2974.2 548.9 C 2971.9 548, 2963.4 547.9, 2955.5 548.7 M 3053.9 549 C 3045.3 550.5, 3031.4 561.5, 3026.9 570.2 C 3020 583.7, 3019.4 597.1, 3025 612.5 C 3027.9 620.4, 3037.5 629.9, 3046.9 634.4 C 3059.2 640.1, 3078.5 639.1, 3088.9 632.3 C 3103.1 622.9, 3111 610.5, 3111.8 596.5 C 3112.9 576.2, 3104.4 560.8, 3087.6 552.5 C 3080.3 548.8, 3079.3 548.6, 3069.2 548.4 C 3063.3 548.2, 3056.4 548.5, 3053.9 549 M 3557.5 548.7 C 3549.8 549.2, 3549.5 549.6, 3552.4 553.1 L 3555 556.2 3555 592.7 L 3555 629.2 3552.4 632.3 C 3549 636.3, 3550.3 637, 3561 637 C 3571.7 637, 3573.1 636.2, 3569.5 632.4 L 3566.9 629.6 3567.4 615.1 C 3568 597.3, 3568 600.7, 3567.4 575.4 C 3566.8 551.5, 3567 551, 3573.9 551 C 3591.2 551, 3600.3 558.9, 3600.1 573.8 C 3600 584.8, 3595.6 591.5, 3586.3 595 C 3583.3 596.1, 3579.5 597, 3577.7 597 C 3573.3 597, 3569.9 598, 3570.6 599.1 C 3571.7 601, 3585.8 600, 3593.7 597.5 C 3606.6 593.4, 3611.7 587.7, 3612.7 576.3 C 3613.4 569.1, 3611.3 562.2, 3607.3 557.8 C 3602.1 552.2, 3586.8 547.4, 3579.6 549 C 3577.5 549.5, 3575.2 549.7, 3574.6 549.5 C 3572.4 548.8, 3562.4 548.4, 3557.5 548.7 M 3664.4 549.2 C 3664.1 549.7, 3665 551.4, 3666.4 552.9 L 3669 555.7 3669.1 592.3 L 3669.2 628.9 3666.6 632.3 C 3665.2 634.2, 3664.3 636, 3664.7 636.3 C 3665.7 637.4, 3684.3 637.1, 3686 636 C 3687.2 635.2, 3687 634.6, 3684.7 632.2 L 3682 629.4 3682 611.7 L 3682 594 3703.9 594 C 3721.8 594, 3726 594.3, 3727 595.5 C 3727.8 596.5, 3728.1 601.5, 3727.8 613.3 C 3727.6 626.9, 3727.2 630, 3725.7 632.3 C 3724.7 633.8, 3724.2 635.5, 3724.5 636 C 3725.3 637.3, 3743.7 637.3, 3744.5 636 C 3744.8 635.5, 3744.2 633.8, 3743 632.2 C 3741 629.6, 3740.9 627.8, 3740.4 593.8 C 3739.8 556.2, 3739.9 555.6, 3744.4 551.8 C 3746.2 550.3, 3746.3 549.9, 3745 549 C 3743.2 547.8, 3728.5 547.9, 3725.2 549.2 L 3722.8 550 3725.4 553.1 C 3728 556.2, 3728 556.2, 3727.8 572.4 L 3727.5 588.5 3704.8 588.8 L 3682 589 3682 571.5 C 3682 555.1, 3682.1 553.9, 3684 552.8 C 3686 551.6, 3686.7 549.1, 3685.3 548.9 C 3679.6 548.2, 3664.8 548.4, 3664.4 549.2 M 3803.8 548.7 C 3801.4 549.3, 3801.5 551.7, 3803.8 552.5 C 3807.7 553.7, 3808 556.8, 3808 593.1 C 3808 628.7, 3807.8 630.9, 3804.2 633.6 C 3800.5 636.3, 3804.5 636.7, 3833.7 636.6 L 3863.5 636.5 3864.3 631.5 C 3864.8 628.8, 3865.6 624.8, 3866.2 622.7 C 3867.6 618.2, 3866.4 616.6, 3864.1 620 C 3857.5 630, 3852 632.8, 3836.5 633.9 C 3824.8 634.8, 3821.7 634.3, 3820.1 631.1 C 3818.9 629, 3818.5 598.4, 3819.6 595.6 C 3820.1 594.3, 3822 594, 3830.1 594 C 3841.1 594, 3843.9 594.9, 3846.4 599.1 C 3848.3 602.4, 3849.9 602.9, 3850.1 600.3 C 3850.6 594.7, 3850.7 586.1, 3850.3 583.8 C 3849.7 580.3, 3847.4 580.2, 3846.6 583.5 C 3845.5 587.9, 3842 589.3, 3831.1 589.4 C 3825.6 589.4, 3820.9 589.2, 3820.5 588.9 C 3819.4 587.7, 3819.8 553, 3821 551.5 C 3821.8 550.5, 3821.8 550, 3820.8 549.4 C 3819.4 548.5, 3806.6 548, 3803.8 548.7 M 3833.7 548.7 C 3824.2 549.1, 3822.3 551, 3831.4 551 C 3844.5 551, 3853.4 554.3, 3858 560.7 C 3860.2 563.7, 3861.6 564.8, 3862.2 564.2 C 3863.6 562.8, 3862.7 551.3, 3861.1 549.7 C 3859.8 548.4, 3849.3 548, 3833.7 548.7 M 3918.3 548.7 C 3916.4 549.4, 3916.7 550.6, 3919.5 553.4 L 3922 555.9 3922 592.4 L 3922 628.8 3919.3 632 C 3917.2 634.6, 3916.9 635.3, 3918.1 636.1 C 3920.1 637.3, 3937.7 637.2, 3938.5 636 C 3938.9 635.4, 3938 633.6, 3936.6 631.9 C 3934.1 628.9, 3934 628.5, 3934 613.6 C 3934 600, 3934.2 598.1, 3935.8 596.6 C 3937.7 595, 3942.3 595.2, 3946.2 597.2 C 3949 598.6, 3955.5 607.7, 3959.6 616 C 3964.8 626.4, 3969.5 633.6, 3972.4 635.5 C 3974.5 636.9, 3981.3 637.6, 3986.8 637.1 C 3989.1 636.9, 3988 634.3, 3984.5 631.9 C 3980.2 628.8, 3976.6 623.8, 3970.9 613.1 C 3968.5 608.5, 3964.8 602.9, 3962.8 600.5 C 3960.7 598.1, 3959 595.8, 3959 595.3 C 3959 594.8, 3961.6 593.2, 3964.9 591.7 C 3989.8 580.3, 3981.1 549, 3953 549 C 3947.6 549, 3946.3 550.6, 3950.8 551.6 C 3966.4 555.3, 3971.3 575.8, 3959.3 587.2 C 3955.3 591, 3952 592, 3943.5 592 C 3937.4 592, 3935.9 591.7, 3935.1 590.2 C 3934.6 589.3, 3934.1 580.9, 3934 571.6 C 3933.9 558, 3934.2 554.3, 3935.4 552.4 C 3936.4 551, 3936.6 549.9, 3936 549.5 C 3934.8 548.8, 3920 548.1, 3918.3 548.7 M 1559.6 550.1 C 1559.9 550.6, 1561.2 551, 1562.5 551 C 1566.5 551, 1575.5 554.8, 1578.3 557.8 C 1586.6 566.5, 1585.8 583.7, 1576.7 591.5 C 1574.5 593.4, 1572.1 595, 1571.4 595 C 1570.8 595, 1569.7 595.7, 1569 596.5 C 1568.2 597.5, 1566 598, 1562.8 598 C 1559.4 598, 1558.1 598.3, 1558.6 599.1 C 1559.8 601.2, 1573.8 599.5, 1581 596.5 C 1592.1 591.9, 1597 585.1, 1597 574.4 C 1597 558.4, 1585.7 548.9, 1567 549.1 C 1562.5 549.2, 1559.2 549.6, 1559.6 550.1 M 2165.8 550.3 C 2165 550.9, 2163.3 554, 2162.1 557 C 2160.9 560, 2159.5 563.4, 2159 564.5 C 2158.1 566.5, 2154.7 574.6, 2153.1 578.5 C 2152.6 579.6, 2151.4 582.5, 2150.5 585 C 2149.5 587.5, 2147.9 591.3, 2147 593.5 C 2146 595.7, 2144.5 599.3, 2143.6 601.5 C 2142.6 603.7, 2141.5 606.4, 2141 607.5 C 2140.5 608.6, 2138.5 613.4, 2136.5 618.2 C 2134.5 622.9, 2131.3 628.7, 2129.4 630.9 C 2127.4 633.1, 2126.1 635.4, 2126.5 636 C 2127.3 637.3, 2140.7 637.3, 2141.5 636 C 2141.8 635.4, 2141.1 633.6, 2139.9 631.9 L 2137.7 628.8 2139.8 623.6 C 2140.9 620.8, 2142.3 616.9, 2142.9 615 C 2145.6 606.9, 2145.3 607, 2162.4 607 C 2179 607, 2179.8 607.2, 2181.5 613 C 2181.9 614.4, 2183.6 618.4, 2185.3 621.9 C 2188.1 628.1, 2188.2 628.4, 2186.6 631.7 C 2185.7 633.5, 2185 635.5, 2185 636 C 2185 637.3, 2205.7 637.3, 2206.4 636.1 C 2206.7 635.6, 2205.5 633.7, 2203.6 631.7 C 2201.4 629.4, 2199 624.7, 2196.5 617.9 C 2194.4 612.2, 2192.3 607.1, 2191.8 606.6 C 2191.4 606, 2191 605, 2191 604.2 C 2191 603.4, 2189.7 599.9, 2188 596.3 C 2186.4 592.8, 2185 589.6, 2185 589.4 C 2185 589.1, 2183.8 586.3, 2182.4 583.2 C 2178 573.5, 2170 553.8, 2170 552.5 C 2170 550.2, 2167.5 548.9, 2165.8 550.3 M 2517.7 549.7 C 2517.3 550.1, 2518.2 551.7, 2519.7 553.2 L 2522.5 556.1 2522.2 592.8 L 2521.8 629.5 2519.2 632.2 C 2517.8 633.7, 2517 635.3, 2517.4 635.7 C 2518.4 636.7, 2536.6 636.8, 2537.5 635.8 C 2537.9 635.4, 2537.3 633.8, 2536.1 632.2 C 2534.2 629.5, 2534 627.8, 2534 616.5 C 2534 609.6, 2534.5 603, 2535 601.9 C 2535.9 600.2, 2537.2 600, 2545.1 600 C 2557.9 600, 2566.9 596.8, 2573 590.1 C 2588.4 573.1, 2576.7 549, 2553.1 549 C 2546.9 549, 2545.7 550.6, 2550.7 551.9 C 2556.6 553.5, 2561.6 557.5, 2564 562.5 C 2567.2 569.2, 2566.6 582.2, 2562.8 587.2 C 2557.9 593.6, 2552.8 596.2, 2544.5 596.8 C 2533.5 597.5, 2534 598.5, 2534 574 C 2534 556.8, 2534.3 553, 2535.5 552 C 2536.3 551.3, 2537 550.4, 2537 549.9 C 2537 548.9, 2518.7 548.7, 2517.7 549.7 M 3057.1 551.1 C 3044.7 556.6, 3038.5 565.9, 3035.9 583 C 3034.4 593, 3035.3 603, 3038.8 612.7 C 3042 621.9, 3044.6 625.4, 3051.2 630 C 3063.4 638.5, 3078.9 636.1, 3088.5 624.4 C 3096.4 614.6, 3100.3 597.2, 3097.5 584.1 C 3094.5 569.9, 3086.7 557.7, 3078 553.5 C 3075 552, 3071.7 550.4, 3070.8 549.9 C 3068 548.5, 3061.9 549, 3057.1 551.1 M 3301 550.4 C 3301 551.2, 3301.9 552.1, 3302.9 552.5 C 3304 552.8, 3305.2 553.9, 3305.5 554.9 C 3305.8 555.9, 3306.1 573, 3306.2 592.9 L 3306.3 629.1 3303.6 631.9 C 3302.2 633.4, 3301 635.1, 3301 635.7 C 3301 637.1, 3320.7 638, 3323.4 636.7 C 3325.1 635.9, 3325 635.6, 3322.2 632.7 C 3319.3 629.5, 3319.2 629.3, 3318.6 614.9 C 3318.1 605.6, 3318.3 599.4, 3318.9 597.6 C 3319.9 595, 3320.2 594.9, 3324.7 595.6 C 3327.4 595.9, 3330.6 596.9, 3332 597.7 C 3335 599.4, 3337 602.5, 3349.2 624.9 C 3355.1 635.6, 3357 637, 3365 637 C 3368.8 637, 3372.1 636.6, 3372.4 636.2 C 3372.7 635.7, 3371 633.7, 3368.6 631.7 C 3365.4 629.1, 3362.7 625, 3358.1 616.1 C 3353.7 607.8, 3350.5 602.8, 3347.4 600 C 3344.9 597.7, 3343.2 595.4, 3343.6 594.9 C 3343.9 594.3, 3346.3 592.9, 3348.9 591.8 C 3362.4 586, 3367.5 575.5, 3362.5 563.3 C 3359.2 555, 3348.5 549, 3337 549 C 3330.4 549, 3328.2 550.5, 3333.2 551.5 C 3343.3 553.7, 3348.5 558.2, 3350.2 566.3 C 3352.2 575.5, 3349.5 583.3, 3342.5 588.6 C 3339.3 591, 3338.2 591.3, 3329.2 591.4 L 3319.5 591.5 3319.2 572.4 C 3319 553.4, 3319 553.3, 3321.3 551.7 C 3322.5 550.9, 3324.5 550, 3325.5 549.7 C 3326.6 549.5, 3321.5 549.2, 3314.3 549.1 C 3303.4 549, 3301 549.3, 3301 550.4 M 2805 551 C 2804.2 551.5, 2802.5 552, 2801.2 552 C 2797.6 552, 2785.8 564.5, 2784.1 570 C 2779.8 583.9, 2779.2 591.5, 2781.4 602.5 C 2783.9 615, 2786.9 620.9, 2793.8 627.2 C 2799.2 632, 2802.6 633.7, 2808.7 634.6 C 2816.7 635.6, 2824.1 633, 2830.7 626.7 C 2837.4 620.4, 2840.2 614.5, 2842.5 601.8 C 2844.1 592.9, 2844.1 591.8, 2842.5 584.1 C 2839.3 568.3, 2833.1 559, 2822 553.2 C 2815.5 549.9, 2808.2 548.9, 2805 551 M 3458.3 551.3 C 3457.8 551.9, 3456.1 555.4, 3454.5 559 C 3453 562.6, 3450.6 567.8, 3449.4 570.7 C 3448.1 573.5, 3447 576.3, 3447 576.8 C 3447 577.3, 3446.3 578.3, 3445.5 579 C 3444.7 579.7, 3444 580.9, 3444 581.7 C 3444 582.5, 3442.9 585.5, 3441.6 588.3 C 3437.5 597, 3426 624.8, 3426 625.9 C 3426 626.5, 3424.4 628.8, 3422.4 631 C 3420.4 633.1, 3419.1 635.4, 3419.5 636 C 3420.3 637.3, 3433.7 637.3, 3434.5 636 C 3434.9 635.4, 3434 633.6, 3432.6 631.9 C 3430.1 629, 3430.1 628.8, 3431.6 625.2 C 3432.5 623.2, 3433.9 619.5, 3434.8 617 C 3435.6 614.5, 3437.2 611.3, 3438.2 609.8 L 3440.1 607 3455.1 607 C 3463.4 607, 3471 607.4, 3472 608 C 3473 608.5, 3474.2 610.5, 3474.5 612.2 C 3474.9 614, 3476.3 617.9, 3477.6 620.9 C 3480.4 627.2, 3480.6 629.7, 3478.4 632.9 C 3476 636.3, 3477.8 637, 3488.8 637 C 3499.5 637, 3501.1 635.8, 3496.5 631.1 C 3494.9 629.6, 3492.1 624.6, 3490.2 619.9 C 3488.4 615.3, 3482.9 601.8, 3478.1 590 C 3463.1 553.2, 3461.7 550, 3460.5 550 C 3459.8 550, 3458.8 550.6, 3458.3 551.3 M 2161 569.2 C 2161 569.9, 2159.9 572.5, 2158.6 575 C 2157.3 577.5, 2155 583.1, 2153.5 587.5 C 2152 591.9, 2150.4 595.9, 2149.9 596.5 C 2148.3 598.2, 2148.9 602.8, 2150.8 603.3 C 2151.7 603.5, 2157.7 603.6, 2164 603.6 L 2175.5 603.5 2175.4 600 C 2175.3 598.1, 2174.1 593.4, 2172.6 589.5 C 2165.7 571.4, 2164.3 568.5, 2162.7 568.2 C 2161.8 568, 2161 568.5, 2161 569.2 M 3451.4 575.7 C 3446.8 585.8, 3441.8 599.8, 3442.2 601.6 C 3442.4 602.9, 3444.5 603.3, 3454.7 603.5 C 3468.7 603.9, 3470.6 603.3, 3469.1 598.5 C 3468.6 596.9, 3465.9 589.7, 3463.2 582.5 C 3457.1 566.5, 3455.9 565.8, 3451.4 575.7"/></svg>
